<?xml version="1.0" encoding="UTF-8"?>
<svg xmlns="http://www.w3.org/2000/svg" version="1.1" width="100" height="100" viewBox="0 0 100 100"><rect x="0" y="0" width="100" height="100" fill="#ffffff"/><g transform="scale(3.448)"><g transform="translate(0,0)"><path fill-rule="evenodd" d="M9 0L9 1L8 1L8 3L9 3L9 4L8 4L8 8L6 8L6 9L8 9L8 10L9 10L9 11L7 11L7 10L6 10L6 11L7 11L7 12L4 12L4 11L5 11L5 9L4 9L4 8L3 8L3 10L0 10L0 11L3 11L3 13L2 13L2 14L3 14L3 15L5 15L5 16L4 16L4 17L1 17L1 16L2 16L2 15L0 15L0 17L1 17L1 18L0 18L0 19L1 19L1 18L3 18L3 19L2 19L2 20L3 20L3 21L8 21L8 23L10 23L10 24L9 24L9 25L8 25L8 26L9 26L9 25L11 25L11 22L10 22L10 21L9 21L9 20L12 20L12 26L11 26L11 28L10 28L10 29L11 29L11 28L12 28L12 29L13 29L13 28L15 28L15 29L16 29L16 28L17 28L17 29L18 29L18 28L20 28L20 29L23 29L23 28L21 28L21 25L22 25L22 26L24 26L24 29L26 29L26 28L25 28L25 27L27 27L27 29L28 29L28 27L29 27L29 26L28 26L28 27L27 27L27 25L25 25L25 24L28 24L28 25L29 25L29 23L28 23L28 22L29 22L29 21L27 21L27 20L29 20L29 17L28 17L28 15L29 15L29 14L24 14L24 15L25 15L25 16L26 16L26 15L27 15L27 17L28 17L28 18L27 18L27 20L26 20L26 22L27 22L27 23L25 23L25 18L26 18L26 17L25 17L25 18L24 18L24 17L21 17L21 16L23 16L23 15L22 15L22 13L23 13L23 11L24 11L24 10L23 10L23 9L25 9L25 11L26 11L26 12L25 12L25 13L26 13L26 12L27 12L27 13L29 13L29 12L28 12L28 10L29 10L29 9L28 9L28 8L26 8L26 9L25 9L25 8L22 8L22 9L20 9L20 8L21 8L21 6L20 6L20 5L21 5L21 4L20 4L20 5L19 5L19 6L18 6L18 7L17 7L17 5L18 5L18 4L19 4L19 3L21 3L21 2L19 2L19 1L20 1L20 0L12 0L12 1L11 1L11 0ZM9 1L9 2L11 2L11 1ZM12 1L12 2L13 2L13 4L14 4L14 2L13 2L13 1ZM16 2L16 3L15 3L15 4L18 4L18 3L19 3L19 2L18 2L18 3L17 3L17 2ZM9 4L9 5L10 5L10 6L9 6L9 7L10 7L10 8L8 8L8 9L9 9L9 10L10 10L10 8L11 8L11 7L12 7L12 9L11 9L11 11L9 11L9 12L8 12L8 13L3 13L3 14L7 14L7 15L6 15L6 16L8 16L8 17L6 17L6 18L5 18L5 19L3 19L3 20L7 20L7 19L6 19L6 18L8 18L8 20L9 20L9 18L10 18L10 17L9 17L9 16L11 16L11 17L15 17L15 21L13 21L13 23L14 23L14 24L16 24L16 19L18 19L18 20L17 20L17 24L18 24L18 25L17 25L17 26L19 26L19 25L20 25L20 24L18 24L18 23L20 23L20 22L19 22L19 19L20 19L20 18L21 18L21 17L19 17L19 16L21 16L21 15L20 15L20 14L19 14L19 12L22 12L22 10L20 10L20 9L18 9L18 8L20 8L20 6L19 6L19 7L18 7L18 8L17 8L17 7L16 7L16 6L15 6L15 8L17 8L17 10L16 10L16 9L13 9L13 8L14 8L14 5L13 5L13 7L12 7L12 5L11 5L11 4ZM10 6L10 7L11 7L11 6ZM0 8L0 9L2 9L2 8ZM26 9L26 10L28 10L28 9ZM13 10L13 11L11 11L11 13L9 13L9 14L8 14L8 16L9 16L9 15L10 15L10 14L11 14L11 16L16 16L16 18L17 18L17 17L18 17L18 16L19 16L19 14L18 14L18 12L19 12L19 11L20 11L20 10L19 10L19 11L18 11L18 10L17 10L17 11L18 11L18 12L17 12L17 15L15 15L15 14L14 14L14 15L13 15L13 14L11 14L11 13L14 13L14 12L16 12L16 11L15 11L15 10ZM0 13L0 14L1 14L1 13ZM11 18L11 19L12 19L12 20L14 20L14 19L13 19L13 18ZM22 18L22 19L21 19L21 20L22 20L22 19L24 19L24 18ZM0 20L0 21L1 21L1 20ZM21 21L21 24L24 24L24 21ZM14 22L14 23L15 23L15 22ZM22 22L22 23L23 23L23 22ZM14 25L14 26L15 26L15 28L16 28L16 25ZM12 26L12 27L13 27L13 26ZM8 27L8 29L9 29L9 27ZM0 0L0 7L7 7L7 0ZM1 1L1 6L6 6L6 1ZM2 2L2 5L5 5L5 2ZM22 0L22 7L29 7L29 0ZM23 1L23 6L28 6L28 1ZM24 2L24 5L27 5L27 2ZM0 22L0 29L7 29L7 22ZM1 23L1 28L6 28L6 23ZM2 24L2 27L5 27L5 24Z" fill="#000000"/></g></g></svg>
