<?xml version="1.0" encoding="UTF-8"?>
<svg xmlns="http://www.w3.org/2000/svg" version="1.1" width="100" height="100" viewBox="0 0 100 100"><rect x="0" y="0" width="100" height="100" fill="#ffffff"/><g transform="scale(3.448)"><g transform="translate(0,0)"><path fill-rule="evenodd" d="M10 0L10 2L11 2L11 0ZM12 0L12 1L13 1L13 2L12 2L12 4L15 4L15 2L16 2L16 3L17 3L17 4L16 4L16 5L15 5L15 6L14 6L14 5L11 5L11 6L10 6L10 4L11 4L11 3L8 3L8 4L9 4L9 5L8 5L8 7L9 7L9 8L6 8L6 9L7 9L7 10L6 10L6 11L5 11L5 12L2 12L2 11L4 11L4 10L5 10L5 8L0 8L0 9L1 9L1 11L0 11L0 21L1 21L1 15L2 15L2 13L3 13L3 14L4 14L4 13L5 13L5 14L6 14L6 15L5 15L5 16L2 16L2 21L3 21L3 19L4 19L4 21L5 21L5 19L4 19L4 18L5 18L5 16L6 16L6 17L7 17L7 16L6 16L6 15L7 15L7 14L9 14L9 13L11 13L11 14L10 14L10 16L8 16L8 17L9 17L9 18L6 18L6 19L7 19L7 20L6 20L6 21L8 21L8 23L9 23L9 24L8 24L8 29L9 29L9 28L10 28L10 29L11 29L11 28L10 28L10 27L9 27L9 26L12 26L12 25L13 25L13 27L14 27L14 28L12 28L12 29L15 29L15 27L16 27L16 28L17 28L17 29L18 29L18 28L17 28L17 27L16 27L16 26L14 26L14 24L15 24L15 23L16 23L16 24L17 24L17 26L18 26L18 27L20 27L20 28L19 28L19 29L20 29L20 28L21 28L21 27L23 27L23 28L22 28L22 29L23 29L23 28L24 28L24 29L25 29L25 28L26 28L26 29L27 29L27 28L28 28L28 26L29 26L29 25L28 25L28 23L27 23L27 22L29 22L29 20L28 20L28 19L27 19L27 16L28 16L28 15L27 15L27 14L25 14L25 13L27 13L27 12L28 12L28 11L27 11L27 12L26 12L26 11L24 11L24 10L25 10L25 9L26 9L26 8L25 8L25 9L24 9L24 8L23 8L23 9L22 9L22 8L21 8L21 5L20 5L20 3L21 3L21 2L19 2L19 5L18 5L18 3L17 3L17 2L16 2L16 1L14 1L14 0ZM17 0L17 1L21 1L21 0ZM8 1L8 2L9 2L9 1ZM13 2L13 3L14 3L14 2ZM17 5L17 8L16 8L16 6L15 6L15 9L14 9L14 10L12 10L12 9L11 9L11 8L10 8L10 9L9 9L9 11L8 11L8 12L7 12L7 11L6 11L6 12L5 12L5 13L6 13L6 14L7 14L7 13L8 13L8 12L11 12L11 11L12 11L12 12L15 12L15 10L16 10L16 12L18 12L18 13L17 13L17 16L18 16L18 17L17 17L17 19L15 19L15 18L16 18L16 17L13 17L13 16L14 16L14 14L16 14L16 13L13 13L13 15L12 15L12 14L11 14L11 16L10 16L10 18L11 18L11 19L8 19L8 21L9 21L9 23L10 23L10 24L9 24L9 25L12 25L12 24L14 24L14 23L15 23L15 22L16 22L16 21L17 21L17 20L18 20L18 21L19 21L19 22L17 22L17 24L18 24L18 25L20 25L20 23L19 23L19 22L20 22L20 21L19 21L19 20L18 20L18 19L21 19L21 20L25 20L25 21L26 21L26 20L27 20L27 19L26 19L26 17L25 17L25 16L27 16L27 15L25 15L25 16L22 16L22 17L25 17L25 19L24 19L24 18L23 18L23 19L22 19L22 18L18 18L18 17L21 17L21 15L22 15L22 14L21 14L21 15L20 15L20 14L19 14L19 15L18 15L18 13L19 13L19 11L20 11L20 10L18 10L18 11L17 11L17 10L16 10L16 9L17 9L17 8L18 8L18 5ZM19 5L19 8L20 8L20 9L21 9L21 8L20 8L20 5ZM9 6L9 7L10 7L10 6ZM11 6L11 7L12 7L12 8L14 8L14 6L13 6L13 7L12 7L12 6ZM27 8L27 9L28 9L28 10L29 10L29 9L28 9L28 8ZM2 9L2 10L4 10L4 9ZM10 9L10 11L11 11L11 9ZM21 11L21 12L20 12L20 13L25 13L25 12L24 12L24 11L23 11L23 12L22 12L22 11ZM1 12L1 13L2 13L2 12ZM6 12L6 13L7 13L7 12ZM28 13L28 14L29 14L29 13ZM19 15L19 16L20 16L20 15ZM3 17L3 18L4 18L4 17ZM11 17L11 18L12 18L12 17ZM28 17L28 18L29 18L29 17ZM13 18L13 19L12 19L12 20L10 20L10 22L12 22L12 23L14 23L14 21L16 21L16 20L15 20L15 19L14 19L14 18ZM13 19L13 20L14 20L14 19ZM12 21L12 22L13 22L13 21ZM21 21L21 24L24 24L24 21ZM22 22L22 23L23 23L23 22ZM25 23L25 25L21 25L21 26L25 26L25 25L26 25L26 24L27 24L27 23ZM27 25L27 26L28 26L28 25ZM24 27L24 28L25 28L25 27ZM26 27L26 28L27 28L27 27ZM0 0L0 7L7 7L7 0ZM1 1L1 6L6 6L6 1ZM2 2L2 5L5 5L5 2ZM22 0L22 7L29 7L29 0ZM23 1L23 6L28 6L28 1ZM24 2L24 5L27 5L27 2ZM0 22L0 29L7 29L7 22ZM1 23L1 28L6 28L6 23ZM2 24L2 27L5 27L5 24Z" fill="#000000"/></g></g></svg>
